# xmcd
#
# Track frame offsets:
#	150
#	54966
#	113879
#	141345
#	193803
#	253063
#	316312
#
# Disc length: 4653 seconds
#
# Revision: 0
# Processed by: cddbd v1.5.2PL0 Copyright (c) Steve Scherf et al.
# Submitted via: audiograbber 1.83.01
#
DISCID=64122b07
DTITLE=Grateful Dead - 76-06-03 Paramount Theatre, Portland OR
DYEAR=1900
DGENRE=
TTITLE0=Scarlet Begonias
TTITLE1=Dancing In The Streets
TTITLE2=Samson and Delilah
TTITLE3=Crazy Fingers
TTITLE4=Wharf Rat
TTITLE5=Let It Grow
TTITLE6=It Must Have Been The Roses
EXTD=
EXTT0=
EXTT1=
EXTT2=
EXTT3=
EXTT4=
EXTT5=
EXTT6=
PLAYORDER=
